<svg data-v-0dd9719b="" version="1.0" xmlns="http://www.w3.org/2000/svg" xmlns:xlink="http://www.w3.org/1999/xlink" width="100%" height="100%" viewBox="0 0 340.000000 250.000000" preserveAspectRatio="xMidYMid meet" color-interpolation-filters="sRGB" style="margin: auto;"> <rect data-v-0dd9719b="" x="0" y="0" width="100%" height="100%" fill="#fff" fill-opacity="1" class="background"></rect> <rect data-v-0dd9719b="" x="0" y="0" width="100%" height="100%" fill="url(#watermark)" fill-opacity="1" class="watermarklayer"></rect> <g data-v-0dd9719b="" fill="#129ac4" class="icon-text-wrapper icon-svg-group iconsvg" transform="translate(48.295005798339844,95.89045906066895)"><g class="iconsvg-imagesvg" transform="translate(0,0)"><g><rect fill="#129ac4" fill-opacity="0" stroke-width="2" x="0" y="0" width="60" height="58.21907839198906" class="image-rect"></rect> <svg x="0" y="0" width="60" height="58.21907839198906" filtersec="colorsb3077787481" class="image-svg-svg primary" style="overflow: visible;"><svg xmlns="http://www.w3.org/2000/svg" viewBox="4.449999809265137 0 995.5499877929688 966"><g fill-rule="evenodd" clip-rule="evenodd" fill="#129AC4"><path d="M476.54 224.06V52.25H275.58l112.8 195.38c27.27-12.51 56.96-20.66 88.16-23.57zM253.68 382.33l-148.75-85.88L4.45 470.5h225.66c2.91-31.21 11.06-60.9 23.57-88.17zM279.39 654.49l-148.77 85.89L231.1 914.42l112.82-195.41a274.692 274.692 0 0 1-64.53-64.52zM527.91 768.29V940.1h200.97l-112.8-195.38a271.558 271.558 0 0 1-88.17 23.57zM750.77 610.02l148.75 85.88L1000 521.86H774.34c-2.91 31.21-11.06 60.89-23.57 88.16zM725.06 337.87l148.77-85.89L773.35 77.93 660.53 273.34a274.734 274.734 0 0 1 64.53 64.53z"></path></g><path fill-rule="evenodd" clip-rule="evenodd" fill="#F47A1E" d="M334.33 266.8l-83.35-144.38-168.88 97.5 189.58 109.45c16.84-23.74 37.83-44.99 62.65-62.57zM223.84 507.92H57.18v195L246.8 593.44c-12.69-27.64-20.24-56.54-22.96-85.52zM377.48 724.14L294.13 868.5 463.01 966V747.06a266.707 266.707 0 0 1-85.53-22.92zM641.53 699.2l83.36 144.38 168.87-97.5-189.58-109.45c-16.85 23.74-37.84 44.99-62.65 62.57zM752.02 458.08h166.66v-195L729.05 372.56c12.69 27.64 20.25 56.54 22.97 85.52zM598.37 241.86L681.72 97.5 512.85 0v218.94a266.392 266.392 0 0 1 85.52 22.92z"></path></svg></svg> <!----></g></g> <g transform="translate(67,11.839540481567383)"><g data-gra="path-name" fill-rule="" class="tp-name iconsvg-namesvg"><g transform="scale(1)"><g><path d="M28.15 5.65L28.15 5.65 16.26-24.32 12.53-24.32 12.53-28.2 18.86-28.2 31.74 4.22 28.15 5.65ZM5.4 5.75L5.4 5.75 1.82 4.32 14.25-26.87 17.83-25.45 5.4 5.75ZM25.84-4.47L25.84-4.47 8.45-4.47 8.45-8.35 25.84-8.35 25.84-4.47ZM46.23 5.06L46.23 5.06Q44.07 5.06 42.15 4.2 40.23 3.34 38.81 1.82 37.39 0.29 36.55-1.69 35.72-3.68 35.72-5.99L35.72-5.99Q35.72-8.25 36.55-10.27 37.39-12.28 38.81-13.78 40.23-15.28 42.15-16.14 44.07-17 46.23-17L46.23-17Q49.13-17 51.73-15.33L51.73-15.33 51.73-24.96 49.42-24.96 49.42-28.79 55.61-28.79 55.61 5.16 51.73 5.16 51.73 3.39Q49.22 5.06 46.23 5.06ZM46.23-13.12L46.23-13.12Q44.85-13.12 43.65-12.55 42.45-11.99 41.54-11.03 40.63-10.07 40.11-8.77 39.6-7.47 39.6-5.99L39.6-5.99Q39.6-4.52 40.11-3.19 40.63-1.87 41.54-0.91 42.45 0.05 43.65 0.61 44.85 1.18 46.23 1.18L46.23 1.18Q47.9 1.18 49.32 0.34 50.75-0.49 51.73-1.92L51.73-1.92 51.73-9.97Q50.75-11.45 49.32-12.28 47.9-13.12 46.23-13.12ZM77.47-13.36L70.69 4.37 66.57 4.37 59.74-13.36 58.61-13.36 58.61-17.24 62.39-17.24 68.58-0.98 74.82-17.24 78.6-17.24 78.6-13.36 77.47-13.36ZM101.15-8.79L101.15 5.11 97.12 5.11 97.12 3.44Q96.83 3.59 96.58 3.78L96.58 3.78Q95.26 4.57 93.44 5.11L93.44 5.11Q92.31 5.5 91.3 5.63 90.29 5.75 89.46 5.75L89.46 5.75Q88.33 5.75 87.47 5.55 86.61 5.35 85.97 5.11L85.97 5.11Q84.6 4.57 83.64 3.59 82.68 2.6 82.24 1.38L82.24 1.38Q81.99 0.79 81.89-0.25 81.8-1.28 82.26-2.53 82.73-3.78 84.03-5.11 85.33-6.44 87.94-7.61L87.94-7.61Q89.31-8.25 90.98-8.74 92.65-9.24 94.13-9.58 95.6-9.92 96.58-10.12L96.58-10.12Q96.83-10.17 97.03-10.17L97.03-10.17Q96.98-10.37 96.93-10.56L96.93-10.56Q96.78-11.5 96.09-12.18L96.09-12.18Q94.86-13.31 92.06-13.17L92.06-13.17Q90.54-13.07 89.21-12.55 87.89-12.04 86.91-11.45 85.92-10.86 85.33-10.37L85.33-10.37 84.74-9.87 81.94-12.77Q81.99-12.82 82.75-13.49 83.52-14.15 84.84-14.93 86.17-15.72 87.96-16.41 89.75-17.1 91.87-17.19L91.87-17.19Q96.44-17.44 98.84-15.08L98.84-15.08Q99.73-14.25 100.19-13.31 100.66-12.38 100.88-11.5 101.1-10.61 101.13-9.9 101.15-9.19 101.15-8.79L101.15-8.79ZM95.11-5.75L95.11-5.75Q93.78-5.45 92.28-5.01 90.79-4.57 89.61-4.03L89.61-4.03Q89.12-3.78 88.38-3.39 87.64-3 87.03-2.46 86.41-1.92 86.07-1.28 85.73-0.64 85.97 0.05L85.97 0.05Q86.07 0.34 86.46 0.76 86.86 1.18 87.62 1.47 88.38 1.77 89.53 1.79 90.69 1.82 92.31 1.33L92.31 1.33Q93.59 0.93 94.54 0.39 95.5-0.15 96.09-0.69L96.09-0.69Q96.68-1.18 97.12-1.72L97.12-1.72 97.12-6.14Q96.24-5.99 95.11-5.75ZM124.93-7.42L124.93 4.72 120.75 4.72 120.75-7.42Q120.75-8.45 120.31-9.36 119.87-10.27 119.13-10.96 118.4-11.64 117.44-12.06 116.48-12.48 115.4-12.48L115.4-12.48Q114.37-12.48 113.41-12.09 112.45-11.69 111.71-11.03 110.98-10.37 110.51-9.48 110.04-8.6 109.99-7.61L109.99-7.61 109.99 4.72 105.82 4.72 105.82-12.33 104.34-12.33 104.34-16.51 109.99-16.51 109.99-15.03Q111.17-15.82 112.55-16.26 113.92-16.7 115.4-16.7L115.4-16.7Q117.31-16.7 119.06-15.97 120.8-15.23 122.1-13.95 123.41-12.67 124.17-10.98 124.93-9.28 124.93-7.42L124.93-7.42ZM132.3-15.52L132.3 4.96 128.27 4.96 128.27-15.52 132.3-15.52ZM132.3-23.53L132.3-19.16 128.27-19.16 128.27-23.53 132.3-23.53ZM146.35 5.06L146.35 5.06Q144.19 5.06 142.27 4.2 140.35 3.34 138.93 1.82 137.51 0.29 136.67-1.69 135.84-3.68 135.84-5.99L135.84-5.99Q135.84-8.25 136.67-10.27 137.51-12.28 138.93-13.78 140.35-15.28 142.27-16.14 144.19-17 146.35-17L146.35-17Q149.25-17 151.85-15.33L151.85-15.33 151.85-24.96 149.54-24.96 149.54-28.79 155.73-28.79 155.73 5.16 151.85 5.16 151.85 3.39Q149.34 5.06 146.35 5.06ZM146.35-13.12L146.35-13.12Q144.97-13.12 143.77-12.55 142.57-11.99 141.66-11.03 140.75-10.07 140.23-8.77 139.72-7.47 139.72-5.99L139.72-5.99Q139.72-4.52 140.23-3.19 140.75-1.87 141.66-0.91 142.57 0.05 143.77 0.61 144.97 1.18 146.35 1.18L146.35 1.18Q148.02 1.18 149.44 0.34 150.87-0.49 151.85-1.92L151.85-1.92 151.85-9.97Q150.87-11.45 149.44-12.28 148.02-13.12 146.35-13.12ZM168.85 5.55L168.85 5.55Q166.59 5.55 164.75 4.72 162.9 3.88 161.6 2.36 160.3 0.84 159.59-1.33 158.88-3.49 158.88-6.14L158.88-6.14Q158.88-8.11 159.54-10.05 160.2-11.99 161.48-13.51 162.76-15.03 164.55-15.97 166.34-16.9 168.65-16.9L168.65-16.9Q170.72-16.9 172.48-16.11 174.25-15.33 175.53-13.93 176.81-12.53 177.52-10.59 178.23-8.65 178.23-6.34L178.23-6.34 178.23-4.32 163-4.32Q163.15-3.34 163.47-2.31 163.79-1.28 164.45-0.42 165.11 0.44 166.2 1.01 167.28 1.57 168.85 1.57L168.85 1.57Q169.73 1.57 170.59 1.18 171.45 0.79 172.19 0.25 172.93-0.29 173.49-0.86 174.06-1.42 174.3-1.77L174.3-1.77 177.45 0.74Q177.3 0.93 176.59 1.69 175.87 2.46 174.72 3.32 173.56 4.18 172.07 4.86 170.57 5.55 168.85 5.55ZM168.65-12.92L168.65-12.92Q166.49-12.92 165.09-11.54 163.69-10.17 163.15-8.3L163.15-8.3 174.01-8.3Q173.56-10.17 172.26-11.54 170.96-12.92 168.65-12.92Z" transform="translate(-1.8199999332427979, 28.790000915527344)"></path></g> <!----> <!----> <!----> <!----> <!----> <!----> <!----></g></g> <!----></g></g><defs v-gra="od"></defs></svg>